PathFileType	4	(X/Y/Z)	/Users/visionmauri/Downloads/Videos/OAW07-top_Sports2D/OAW07-top_Sports2D_m_person00.trc
DataRate	CameraRate	NumFrames	NumMarkers	Units	OrigDataRate	OrigDataStartFrame	OrigNumFrames
30.0	30.0	10	22	m	30.0	357	2861
Frame#	Time	Hip			RHip			RKnee			RAnkle			RBigToe			RSmallToe			RHeel			LHip			LKnee			LAnkle			LBigToe			LSmallToe			LHeel			Neck			Head			Nose			RShoulder			RElbow			RWrist			LShoulder			LElbow			LWrist			
		X1	Y1	Z1	X2	Y2	Z2	X3	Y3	Z3	X4	Y4	Z4	X5	Y5	Z5	X6	Y6	Z6	X7	Y7	Z7	X8	Y8	Z8	X9	Y9	Z9	X10	Y10	Z10	X11	Y11	Z11	X12	Y12	Z12	X13	Y13	Z13	X14	Y14	Z14	X15	Y15	Z15	X16	Y16	Z16	X17	Y17	Z17	X18	Y18	Z18	X19	Y19	Z19	X20	Y20	Z20	X21	Y21	Z21	X22	Y22	Z22
521	17.372409611992943	1.5552361596609934	0.49036534499127254	0.0301	1.5827813244346167	0.5094928860901998	0.0301	1.6997537646677732	0.4013463117670039	0.129	1.8360394259888944	0.34972730737803953	0.023	1.862582466458875	0.2803751505085515	0.2179	1.8713692357676328	0.2971542905362571	0.1804	1.864257001212524	0.3430640594950311	-0.0119	1.5419137449482814	0.4556706766634203	0.0301	1.649459961643773	0.33428661143272054	0.129	1.7593462288180657	0.24281047359805577	0.023	1.762808566446083	0.1956652915177084	0.2179	1.764798237023856	0.1875391387330892	0.1804	1.7861335580585482	0.23554217227663224	-0.0119	1.3645175178875844	0.6118764999345914	0.0008	1.2899184823172327	0.643572077456618	0.0655	1.3306986156667624	0.5981353393807556	0.1076	1.4278205979228928	0.645679057929765	-0.01275	1.5464675289175318	0.5954176259226123	0.0702	1.5958125574150697	0.5283689384288895	0.1076	1.359677684711046	0.5551193841942024	-0.01275	1.4591246439027548	0.47161476525015517	0.0702	1.530100379495634	0.4021221268036122	0.1076
522	17.405753968253965	1.5518804301501188	0.48956483664746453	0.0301	1.581830344245541	0.507065826812475	0.0301	1.6920026258598153	0.3976279384600577	0.129	1.8267939033910858	0.3533340238591242	0.023	1.8624344424757486	0.2804959471222187	0.2179	1.8699407946101676	0.2971651613889713	0.1804	1.8558316618838806	0.34818863281027995	-0.0119	1.5406946060201443	0.45360399684071523	0.0301	1.64771082116369	0.3342933392692913	0.129	1.7596457631715137	0.2424726264686663	0.023	1.762837865343606	0.19560952685916314	0.2179	1.7645643844958134	0.18847473040888202	0.1804	1.786351116940128	0.23571752646330432	-0.0119	1.359364825867035	0.6123734183480982	0.0008	1.291050101597468	0.6432142544294115	0.0655	1.3279781908231123	0.5992482438511121	0.1076	1.4232912098766317	0.6441053652653582	-0.01275	1.542166408414253	0.5947576881533002	0.0702	1.5930392119239316	0.528254058780173	0.1076	1.356821230575341	0.5525021893542882	-0.01275	1.4545441671358286	0.4710889547342388	0.0702	1.5246123261282882	0.3999513288070739	0.1076
523	17.43909832451499	1.5483508569088074	0.48911083190850474	0.0301	1.5801554242271718	0.5050296038422093	0.0301	1.6860811703936258	0.3944275572299414	0.129	1.816830668050669	0.3572203025568521	0.023	1.8625849047148366	0.28016097741282076	0.2179	1.8689653269567028	0.2984897444903085	0.1804	1.846353678617282	0.3544336304215985	-0.0119	1.5386261720223477	0.45253562712716505	0.0301	1.6469750215690686	0.3340922704809583	0.129	1.7597062412637576	0.2420547162620452	0.023	1.7626742233120336	0.19582983880727722	0.2179	1.7649257868717585	0.18986662683853597	0.1804	1.7868695322071992	0.23575991434259166	-0.0119	1.3562167584933644	0.6120837572645084	0.0008	1.292458326823103	0.6437441879913457	0.0655	1.326201437742001	0.6006115597298687	0.1076	1.420156357119328	0.6422447552454815	-0.01275	1.5386346739941577	0.5936530151057355	0.0702	1.5905491120439204	0.5286034171804225	0.1076	1.3553658845663286	0.5504599731401901	-0.01275	1.4504216621848711	0.46862110796402556	0.0702	1.5187555637118295	0.39664737678695206	0.1076
524	17.472442680776012	1.545021322691481	0.48835779118234407	0.0301	1.577619098328657	0.5039848065912524	0.0301	1.6822221455140036	0.39184724180609504	0.129	1.8085663824264024	0.360254909701732	0.023	1.861819240721914	0.28037394726915593	0.2179	1.8677030676743358	0.30068588919698114	0.1804	1.8375805517943469	0.3592733159544414	-0.0119	1.5358841709485906	0.4516041893489367	0.0301	1.6467669654577746	0.3335308981612424	0.129	1.7595392179533091	0.24195565222795845	0.023	1.7627756789660949	0.1964875626415778	0.2179	1.7657690973929123	0.19106986687473743	0.1804	1.7870634828233278	0.23568839481645018	-0.0119	1.354466749215954	0.6100881780590806	0.0008	1.29289072264993	0.6443571719109203	0.0655	1.3255176127551844	0.600704891234635	0.1076	1.4187891400464723	0.6397142551794872	-0.01275	1.5363395178613373	0.5918081098345457	0.0702	1.5887486712844079	0.5284972831181772	0.1076	1.3540156147997844	0.5482471953285166	-0.01275	1.447142215659076	0.4640901826730353	0.0702	1.513691284427536	0.39231983034249196	0.1076
525	17.505787037037035	1.5424055079274495	0.4867236905434779	0.0301	1.5748893754854087	0.503652096533742	0.0301	1.6798134294855631	0.38964369219157347	0.129	1.803227531528163	0.3606920425798113	0.023	1.8592180587162326	0.28195687447414625	0.2179	1.865767415243115	0.3032094091399173	0.1804	1.8311972636934482	0.35934209831960645	-0.0119	1.5332305820014054	0.4499537992308285	0.0301	1.6461094191406875	0.33282391744760115	0.129	1.7589151425072183	0.24217608337670868	0.023	1.7635920937082583	0.19756092570592174	0.2179	1.7665776121625534	0.1917041359884752	0.1804	1.7863498420547514	0.23528686931861517	-0.0119	1.3532262975784142	0.6073781774166295	0.0008	1.2923887398721594	0.6442932960141001	0.0655	1.3255120290070488	0.5992690685892466	0.1076	1.4185371952334573	0.6366300822614321	-0.01275	1.53541391973688	0.5892256027355338	0.0702	1.5877643273827313	0.5273875853095052	0.1076	1.3520322845293593	0.5455274724435611	-0.01275	1.4451457422644565	0.4587996063918132	0.0702	1.510083868450647	0.3877600837470085	0.1076
526	17.539131393298057	1.5401077425891725	0.48470432042399325	0.0301	1.5718383462220165	0.5034872112404036	0.0301	1.677475641322459	0.38834004174137915	0.129	1.800232638489933	0.3573244099064077	0.023	1.855378148008335	0.2844999523091633	0.2179	1.8635546211946372	0.30562362194734066	0.1804	1.827401708123175	0.35377839778418274	-0.0119	1.5302245933363487	0.4484666991733877	0.0301	1.6444875975122517	0.3324589731681092	0.129	1.7578354671289598	0.24225965604011476	0.023	1.7647410064301372	0.19890871890968495	0.2179	1.7670790280060313	0.19245615609087416	0.1804	1.7850564712871382	0.23455506244530855	-0.0119	1.3523506914079326	0.6048372236882127	0.0008	1.2905826480842573	0.6427658555066057	0.0655	1.324652355834694	0.5976723080733594	0.1076	1.4189130994336818	0.633565293889522	-0.01275	1.5352268053282165	0.5863228963478371	0.0702	1.5871315579036016	0.5255589910763206	0.1076	1.349553344485874	0.542621757626628	-0.01275	1.4435587562960144	0.45414442090290097	0.0702	1.5076035883324852	0.383637750017499	0.1076
527	17.572475749559082	1.53752658835334	0.4830649896446	0.0301	1.567672971517379	0.5031634892924501	0.0301	1.674603323924357	0.3882720200028789	0.129	1.7991815634424242	0.3503969969557202	0.023	1.8509662824863822	0.2871690485699704	0.2179	1.8608327172905708	0.30732664297356527	0.1804	1.825843632580079	0.34425582395023224	-0.0119	1.5261094811615927	0.4481907234136571	0.0301	1.642181312375931	0.33269832966730073	0.129	1.7566854609975024	0.2420337822101334	0.023	1.7654814830506602	0.20003564341034966	0.2179	1.7672847425711735	0.19352178636020134	0.1804	1.7838605941674928	0.23380072298679963	-0.0119	1.3519277484657177	0.6020430016842448	0.0008	1.2871894423889838	0.6396910057084929	0.0655	1.3224306426988637	0.5968138933115149	0.1076	1.4193183872268482	0.6309977057168369	-0.01275	1.5347128810762403	0.5839919338401822	0.0702	1.5864630561119746	0.5235905706970807	0.1076	1.3469446187548253	0.5398021061441332	-0.01275	1.441151833754715	0.4505655354962348	0.0702	1.5053518747758463	0.38043863062429045	0.1076
528	17.605820105820104	1.534900557767139	0.4820141240905924	0.0301	1.563081556595094	0.5028082061596336	0.0301	1.672007350209159	0.38855768163472043	0.129	1.799866913322639	0.34188611973406763	0.023	1.8457957793771986	0.28823980779588276	0.2179	1.8568966269425544	0.30716525482230556	0.1804	1.8261098508158355	0.33344716878816183	-0.0119	1.5216843072260648	0.44875866866469155	0.0301	1.6401160016002878	0.3333151218851563	0.129	1.7555311735764938	0.24210021404685741	0.023	1.7654308186801764	0.20055397529214342	0.2179	1.7674038712150915	0.19415246269809902	0.1804	1.7830478469148934	0.23329753922144017	-0.0119	1.3514510356162508	0.598432123089016	0.0008	1.283198614420563	0.6361771660042187	0.0655	1.3199029111468181	0.5960951436339396	0.1076	1.4182603479524585	0.6291520905848335	-0.01275	1.5334224374445642	0.5832110466135562	0.0702	1.5857859569064987	0.5221113517717937	0.1076	1.3442940829602052	0.5369660277768411	-0.01275	1.4379317718985853	0.4480787234170541	0.0702	1.5025870107423074	0.3783913363758703	0.1076
529	17.639164462081126	1.5331286080819613	0.48135861399120233	0.0301	1.5600489623996145	0.5026416488904049	0.0301	1.6703605186893624	0.38823862205435866	0.129	1.8007370230496722	0.33445397977236063	0.023	1.8397166425320166	0.2860172980708849	0.2179	1.8516834896293546	0.30443877797750846	0.1804	1.8266781718802003	0.3242876483006115	-0.0119	1.5184622416526488	0.4492262871413766	0.0301	1.6389748517513285	0.33366618737421827	0.129	1.7543279563301482	0.24289508033010082	0.023	1.7649371638713578	0.2007002933966059	0.2179	1.7677236423892178	0.19422491421939575	0.1804	1.7825596255487586	0.2331726485326071	-0.0119	1.3500628234552512	0.5947616022169647	0.0008	1.2799453111287167	0.6332777220722587	0.0655	1.3177724310589014	0.5946210058374546	0.1076	1.4150087762650163	0.6282670731277913	-0.01275	1.5315798881211975	0.5837997594886852	0.0702	1.585302778346457	0.5215919695784168	0.1076	1.341695072096229	0.5344597631280898	-0.01275	1.434667657540003	0.446897423406503	0.0702	1.4992082016930328	0.37728139775663766	0.1076
530	17.67250881834215	1.5325354692017883	0.4808789319383619	0.0301	1.5586994005809602	0.5024793148411916	0.0301	1.6690939427284148	0.3874471647941187	0.129	1.7999739253604623	0.32913499071317487	0.023	1.8330722800132362	0.281922280926078	0.2179	1.8455809948882431	0.3004879948783288	0.1804	1.8256602347741948	0.3181725667468563	-0.0119	1.5165399954221734	0.44944702301054235	0.0301	1.6384577405111762	0.33330436816095577	0.129	1.7535929445153404	0.2438185877495951	0.023	1.7647877371963419	0.2008554267696386	0.2179	1.7682753626718255	0.19431808895269917	0.1804	1.7824107794214519	0.233363173223121	-0.0119	1.348071478309969	0.5923108698411365	0.0008	1.2777500595038456	0.6310099322759153	0.0655	1.3161481578575263	0.5923313606441467	0.1076	1.4113651575639714	0.6281165290509656	-0.01275	1.5295834883367638	0.5841913846539443	0.0702	1.5849907622768447	0.521538621631883	0.1076	1.3395372889848314	0.5331411106987135	-0.01275	1.4319952164301162	0.4464674004091875	0.0702	1.495772817958853	0.37664546078192485	0.1076
